<svg xmlns="http://www.w3.org/2000/svg" width="145" height="211"><defs><linearGradient id="a" x1="-.03" x2="144.97" y1="67" y2="144" gradientUnits="userSpaceOnUse"><stop offset="0" stop-color="#2f3dfc" stop-opacity=".6"/><stop offset=".73" stop-color="#641187" stop-opacity=".6"/><stop offset="1" stop-color="#641187" stop-opacity=".6"/></linearGradient></defs><path d="M55.754 158.354a3.092 3.092 0 01-3.094 3.091H39.434a3.092 3.092 0 01-3.093-3.09 3.092 3.092 0 013.093-3.091H52.66a3.092 3.092 0 013.094 3.09zm89.26-18.628l-2.737 68.306a3.093 3.093 0 01-3.216 2.965 3.092 3.092 0 01-2.967-3.212l2.738-68.306c.08-2.004-.2-3.958-.79-5.792l-11.25 11.24a16.613 16.613 0 00-4.905 11.831v51.15a3.092 3.092 0 01-3.094 3.092 3.092 3.092 0 01-3.093-3.091v-51.151c0-6.12 2.385-11.874 6.716-16.202l12.513-12.5a16.722 16.722 0 00-6.803-4.856l-18.191-7.01-13.852 20.76a9.675 9.675 0 01-7.12 4.27 9.66 9.66 0 01-6.422-1.637l2.971 68.19A3.093 3.093 0 0182.419 211a3.092 3.092 0 01-3.089-2.957l-2.745-63.011h-8.167l-2.746 63.011a3.092 3.092 0 01-3.225 2.954 3.092 3.092 0 01-2.956-3.222l2.971-68.19a9.663 9.663 0 01-6.422 1.636 9.672 9.672 0 01-7.12-4.271l-13.852-20.76-18.19 7.01a16.718 16.718 0 00-6.804 4.856l12.512 12.5a22.752 22.752 0 016.717 16.202v51.152A3.092 3.092 0 0126.21 211a3.092 3.092 0 01-3.094-3.09v-51.151c0-4.469-1.742-8.67-4.905-11.83l-11.25-11.241a16.692 16.692 0 00-.79 5.792l2.738 68.306A3.092 3.092 0 015.816 211a3.093 3.093 0 01-3.09-2.967L-.01 139.726a22.905 22.905 0 0114.66-22.294l19.334-7.451 9.878-9.87a3.089 3.089 0 012.4-.896v-8.42a35.962 35.962 0 01-9.286-18.272c-.016-.06-.12-.164-.191-.193a9.628 9.628 0 01-2.599-.176c-4.498-.92-7.763-5.097-7.763-9.933v-2.535c0-4.122 2.363-7.702 5.85-9.23-1.028-4.092-2.544-11.677-2.544-20.838 0-16.191 11.652-19.015 15.59-19.505C48.12 7.777 57.558.9 72.333.103c15.74-.85 28.11 3.374 35.773 12.214 7.974 9.2 10.491 23 7.31 39.957a10.134 10.134 0 013.162 7.372v2.575c0 4.836-3.265 9.013-7.763 9.933a9.67 9.67 0 01-2.599.175c-.071.03-.175.134-.192.197a35.952 35.952 0 01-9.285 18.27v8.419a3.088 3.088 0 012.4.896l9.879 9.87 19.332 7.451a22.911 22.911 0 0114.665 22.294zM72.499 95.902c14.45 0 26.83-10.302 29.44-24.496.583-3.174 3.528-5.478 6.691-5.245.309.022.625.001.943-.064 1.606-.328 2.817-1.995 2.817-3.876v-2.575c0-1.811-1.23-3.422-2.861-3.746-.524-.104-1.695-.07-2.832.197a5.37 5.37 0 01-6.205-3.18l-2.707-6.494c-8.78 1.8-36.849 5.897-50.859-11.53a3.088 3.088 0 01.475-4.345 3.095 3.095 0 014.349.474c13.867 17.247 46.776 8.907 47.106 8.82a3.097 3.097 0 013.64 1.802l3.456 8.294c1.255-.238 2.527-.321 3.64-.245 2.43-14.364.316-25.854-6.164-33.329-6.364-7.343-17.002-10.83-30.762-10.088-15.185.82-23.838 8.97-23.924 9.053a3.095 3.095 0 01-2.143.863c-1.074.016-10.684.53-10.684 13.427 0 9.363 1.73 17.013 2.624 20.345a9.678 9.678 0 014.167 2.262 19.408 19.408 0 003.972-4.543 3.095 3.095 0 014.27-.956 3.09 3.09 0 01.956 4.265c-1.817 2.866-4.111 5.287-6.817 7.195a4.527 4.527 0 01-3.89.624 4.518 4.518 0 01-2.28-1.596c-.817-1.063-2.107-1.557-3.45-1.322-1.63.286-2.858 1.917-2.858 3.793v2.535c0 1.882 1.21 3.549 2.817 3.877.318.065.635.086.943.064 3.171-.232 6.108 2.07 6.69 5.244 2.61 14.194 14.991 24.496 29.44 24.496zm-4.524 29.67l-21.786-19.045-6.08 6.075 13.958 20.918a3.508 3.508 0 002.582 1.549 3.505 3.505 0 002.835-1.013zm8.34 13.277l-.24-5.484-3.574-3.572-3.575 3.572-.239 5.484zm16.238-35.063v-7.778a36.046 36.046 0 01-20.052 6.077 36.043 36.043 0 01-20.052-6.077v7.778l20.052 17.53zm12.338 8.816l-6.08-6.075-21.785 19.046 8.49 8.483a3.505 3.505 0 002.836 1.013 3.508 3.508 0 002.582-1.549z"/><path fill="url(#a)" d="M55.754 158.354a3.092 3.092 0 01-3.094 3.091H39.434a3.092 3.092 0 01-3.093-3.09 3.092 3.092 0 013.093-3.091H52.66a3.092 3.092 0 013.094 3.09zm89.26-18.628l-2.737 68.306a3.093 3.093 0 01-3.216 2.965 3.092 3.092 0 01-2.967-3.212l2.738-68.306c.08-2.004-.2-3.958-.79-5.792l-11.25 11.24a16.613 16.613 0 00-4.905 11.831v51.15a3.092 3.092 0 01-3.094 3.092 3.092 3.092 0 01-3.093-3.091v-51.151c0-6.12 2.385-11.874 6.716-16.202l12.513-12.5a16.722 16.722 0 00-6.803-4.856l-18.191-7.01-13.852 20.76a9.675 9.675 0 01-7.12 4.27 9.66 9.66 0 01-6.422-1.637l2.971 68.19A3.093 3.093 0 0182.419 211a3.092 3.092 0 01-3.089-2.957l-2.745-63.011h-8.167l-2.746 63.011a3.092 3.092 0 01-3.225 2.954 3.092 3.092 0 01-2.956-3.222l2.971-68.19a9.663 9.663 0 01-6.422 1.636 9.672 9.672 0 01-7.12-4.271l-13.852-20.76-18.19 7.01a16.718 16.718 0 00-6.804 4.856l12.512 12.5a22.752 22.752 0 016.717 16.202v51.152A3.092 3.092 0 0126.21 211a3.092 3.092 0 01-3.094-3.09v-51.151c0-4.469-1.742-8.67-4.905-11.83l-11.25-11.241a16.692 16.692 0 00-.79 5.792l2.738 68.306A3.092 3.092 0 015.816 211a3.093 3.093 0 01-3.09-2.967L-.01 139.726a22.905 22.905 0 0114.66-22.294l19.334-7.451 9.878-9.87a3.089 3.089 0 012.4-.896v-8.42a35.962 35.962 0 01-9.286-18.272c-.016-.06-.12-.164-.191-.193a9.628 9.628 0 01-2.599-.176c-4.498-.92-7.763-5.097-7.763-9.933v-2.535c0-4.122 2.363-7.702 5.85-9.23-1.028-4.092-2.544-11.677-2.544-20.838 0-16.191 11.652-19.015 15.59-19.505C48.12 7.777 57.558.9 72.333.103c15.74-.85 28.11 3.374 35.773 12.214 7.974 9.2 10.491 23 7.31 39.957a10.134 10.134 0 013.162 7.372v2.575c0 4.836-3.265 9.013-7.763 9.933a9.67 9.67 0 01-2.599.175c-.071.03-.175.134-.192.197a35.952 35.952 0 01-9.285 18.27v8.419a3.088 3.088 0 012.4.896l9.879 9.87 19.332 7.451a22.911 22.911 0 0114.665 22.294zM72.499 95.902c14.45 0 26.83-10.302 29.44-24.496.583-3.174 3.528-5.478 6.691-5.245.309.022.625.001.943-.064 1.606-.328 2.817-1.995 2.817-3.876v-2.575c0-1.811-1.23-3.422-2.861-3.746-.524-.104-1.695-.07-2.832.197a5.37 5.37 0 01-6.205-3.18l-2.707-6.494c-8.78 1.8-36.849 5.897-50.859-11.53a3.088 3.088 0 01.475-4.345 3.095 3.095 0 014.349.474c13.867 17.247 46.776 8.907 47.106 8.82a3.097 3.097 0 013.64 1.802l3.456 8.294c1.255-.238 2.527-.321 3.64-.245 2.43-14.364.316-25.854-6.164-33.329-6.364-7.343-17.002-10.83-30.762-10.088-15.185.82-23.838 8.97-23.924 9.053a3.095 3.095 0 01-2.143.863c-1.074.016-10.684.53-10.684 13.427 0 9.363 1.73 17.013 2.624 20.345a9.678 9.678 0 014.167 2.262 19.408 19.408 0 003.972-4.543 3.095 3.095 0 014.27-.956 3.09 3.09 0 01.956 4.265c-1.817 2.866-4.111 5.287-6.817 7.195a4.527 4.527 0 01-3.89.624 4.518 4.518 0 01-2.28-1.596c-.817-1.063-2.107-1.557-3.45-1.322-1.63.286-2.858 1.917-2.858 3.793v2.535c0 1.882 1.21 3.549 2.817 3.877.318.065.635.086.943.064 3.171-.232 6.108 2.07 6.69 5.244 2.61 14.194 14.991 24.496 29.44 24.496zm-4.524 29.67l-21.786-19.045-6.08 6.075 13.958 20.918a3.508 3.508 0 002.582 1.549 3.505 3.505 0 002.835-1.013zm8.34 13.277l-.24-5.484-3.574-3.572-3.575 3.572-.239 5.484zm16.238-35.063v-7.778a36.046 36.046 0 01-20.052 6.077 36.043 36.043 0 01-20.052-6.077v7.778l20.052 17.53zm12.338 8.816l-6.08-6.075-21.785 19.046 8.49 8.483a3.505 3.505 0 002.836 1.013 3.508 3.508 0 002.582-1.549z"/></svg>