<svg xmlns="http://www.w3.org/2000/svg" width="157" height="211"><defs><linearGradient id="a" x1="0" x2="157" y1="64" y2="147" gradientUnits="userSpaceOnUse"><stop offset="0" stop-color="#2f3dfc" stop-opacity=".6"/><stop offset=".73" stop-color="#641187" stop-opacity=".6"/><stop offset="1" stop-color="#641187" stop-opacity=".6"/></linearGradient></defs><path d="M157 131.914C157 175.52 121.783 211 78.5 211S0 175.52 0 131.914C0 87.916 33.939 0 78.5 0S157 87.916 157 131.914zM35.133 44.384l.182-.078a4.342 4.342 0 013.39-.004l18.994 8.075 19.025-8.075a4.358 4.358 0 013.382 0l19.024 8.074 19.029-8.075a4.36 4.36 0 013.381 0l.367.156C108.454 21.685 92.941 8.791 78.5 8.791c-14.426 0-29.924 12.864-43.367 35.592zm-23.648 63.072l4.86 2.066 18.97-8.07a4.343 4.343 0 013.39-.005l18.994 8.075 19.025-8.075a4.36 4.36 0 013.381 0l19.024 8.075 19.03-8.075a4.36 4.36 0 013.381 0l19.067 8.075 4.905-2.077c-3.268-16.56-9.292-34.7-17.05-50.673l-8.613-3.65-19.029 8.076a4.358 4.358 0 01-1.69.343 4.36 4.36 0 01-1.691-.343l-19.024-8.075-19.025 8.075a4.368 4.368 0 01-3.386 0L37.01 53.123l-8.445 3.594c-7.774 15.989-13.807 34.157-17.08 50.74zm123.044 66.177l-14.68-6.218-19.029 8.075a4.358 4.358 0 01-1.69.343c-.575 0-1.15-.115-1.691-.343l-19.024-8.075-19.025 8.075a4.368 4.368 0 01-3.386 0l-18.994-8.075-14.557 6.194c12.722 17.309 33.075 28.6 56.047 28.6 22.961 0 43.306-11.281 56.029-28.576zm4.856-7.482c5.642-10.141 8.892-21.808 8.892-34.237 0-4.766-.476-10.052-1.25-15.573l-4.73 2.003a4.361 4.361 0 01-3.381 0l-19.067-8.075-19.029 8.075a4.365 4.365 0 01-1.69.343c-.575 0-1.15-.116-1.691-.343l-19.024-8.075-19.025 8.075a4.37 4.37 0 01-3.386 0L37.01 110.27l-18.97 8.07a4.34 4.34 0 01-3.39.005l-4.68-1.988c-.772 5.516-1.248 10.795-1.248 15.557 0 12.422 3.246 24.082 8.882 34.22l17.71-7.536a4.347 4.347 0 013.391-.004l18.994 8.075 19.025-8.075a4.364 4.364 0 013.382 0l19.024 8.075 19.029-8.075a4.364 4.364 0 013.381 0z"/><path fill="url(#a)" d="M157 131.914C157 175.52 121.783 211 78.5 211S0 175.52 0 131.914C0 87.916 33.939 0 78.5 0S157 87.916 157 131.914zM35.133 44.384l.182-.078a4.342 4.342 0 013.39-.004l18.994 8.075 19.025-8.075a4.358 4.358 0 013.382 0l19.024 8.074 19.029-8.075a4.36 4.36 0 013.381 0l.367.156C108.454 21.685 92.941 8.791 78.5 8.791c-14.426 0-29.924 12.864-43.367 35.592zm-23.648 63.072l4.86 2.066 18.97-8.07a4.343 4.343 0 013.39-.005l18.994 8.075 19.025-8.075a4.36 4.36 0 013.381 0l19.024 8.075 19.03-8.075a4.36 4.36 0 013.381 0l19.067 8.075 4.905-2.077c-3.268-16.56-9.292-34.7-17.05-50.673l-8.613-3.65-19.029 8.076a4.358 4.358 0 01-1.69.343 4.36 4.36 0 01-1.691-.343l-19.024-8.075-19.025 8.075a4.368 4.368 0 01-3.386 0L37.01 53.123l-8.445 3.594c-7.774 15.989-13.807 34.157-17.08 50.74zm123.044 66.177l-14.68-6.218-19.029 8.075a4.358 4.358 0 01-1.69.343c-.575 0-1.15-.115-1.691-.343l-19.024-8.075-19.025 8.075a4.368 4.368 0 01-3.386 0l-18.994-8.075-14.557 6.194c12.722 17.309 33.075 28.6 56.047 28.6 22.961 0 43.306-11.281 56.029-28.576zm4.856-7.482c5.642-10.141 8.892-21.808 8.892-34.237 0-4.766-.476-10.052-1.25-15.573l-4.73 2.003a4.361 4.361 0 01-3.381 0l-19.067-8.075-19.029 8.075a4.365 4.365 0 01-1.69.343c-.575 0-1.15-.116-1.691-.343l-19.024-8.075-19.025 8.075a4.37 4.37 0 01-3.386 0L37.01 110.27l-18.97 8.07a4.34 4.34 0 01-3.39.005l-4.68-1.988c-.772 5.516-1.248 10.795-1.248 15.557 0 12.422 3.246 24.082 8.882 34.22l17.71-7.536a4.347 4.347 0 013.391-.004l18.994 8.075 19.025-8.075a4.364 4.364 0 013.382 0l19.024 8.075 19.029-8.075a4.364 4.364 0 013.381 0z"/></svg>